# xmcd
#
# Track frame offsets: 
#        150
#        12539
#        25923
#        41743
#        58708
#        88781
#        106984
#        125014
#        140131
#        162542
#
# Disc length: 2364 seconds
#
# Revision: 3
# Processed by: cddbd v1.5.2PL0 Copyright (c) Steve Scherf et al.
# Submitted via: ExactAudioCopy v1.0b6
#
DISCID=91093a0a
DTITLE=Tátrai Tibor and Szűcs Antal Gábor - Latin-Latin
DYEAR=2002
DGENRE=Latin
TTITLE0=Tequila
TTITLE1=Intrada
TTITLE2=El nino
TTITLE3=Sellők tánca
TTITLE4=Köszi amigo
TTITLE5=Latin qeen
TTITLE6=Kedd
TTITLE7=Amphora
TTITLE8=Fülemüle dal
TTITLE9=Napnyugta
EXTD=
EXTT0=
EXTT1=
EXTT2=
EXTT3=
EXTT4=
EXTT5=
EXTT6=
EXTT7=
EXTT8=
EXTT9=
PLAYORDER=
